<?xml version="1.0" standalone="no"?><!DOCTYPE svg PUBLIC "-//W3C//DTD SVG 1.1//EN" "http://www.w3.org/Graphics/SVG/1.1/DTD/svg11.dtd"><svg t="1557810678751" class="icon" style="" viewBox="0 0 1024 1024" version="1.1" xmlns="http://www.w3.org/2000/svg" p-id="1100" xmlns:xlink="http://www.w3.org/1999/xlink" width="16" height="16"><defs><style type="text/css"></style></defs><path d="M512 625.664L131.584 245.248c-28.16-28.16-73.216-28.16-101.376 0s-28.16 73.216 0 101.376l420.864 420.864c2.56 4.096 5.632 7.68 9.216 11.264 14.336 14.336 32.768 21.504 51.712 20.992 18.432 0 37.376-6.656 51.712-20.992 3.584-3.584 6.656-7.168 9.216-11.264l420.864-420.864c13.824-13.824 20.992-32.256 20.992-50.688 0-18.432-7.168-36.864-20.992-50.688-28.16-28.16-73.216-28.16-101.376 0L512 625.664z" fill="#646464" p-id="1101"></path></svg>